<mxfile host="Electron" agent="Mozilla/5.0 (Macintosh; Intel Mac OS X 10_15_7) AppleWebKit/537.36 (KHTML, like Gecko) draw.io/24.7.5 Chrome/126.0.6478.183 Electron/31.3.0 Safari/537.36" version="24.7.5">
  <diagram name="第 1 页" id="eb2Gc_ZEddOVav5xn5it">
    <mxGraphModel dx="1026" dy="652" grid="1" gridSize="10" guides="1" tooltips="1" connect="1" arrows="1" fold="1" page="1" pageScale="1" pageWidth="827" pageHeight="1169" math="0" shadow="0">
      <root>
        <mxCell id="0" />
        <mxCell id="1" parent="0" />
        <mxCell id="f9P_iwot9j96NchUag2D-24" value="" style="edgeStyle=orthogonalEdgeStyle;rounded=0;orthogonalLoop=1;jettySize=auto;html=1;" edge="1" parent="1" source="f9P_iwot9j96NchUag2D-4" target="f9P_iwot9j96NchUag2D-21">
          <mxGeometry relative="1" as="geometry" />
        </mxCell>
        <mxCell id="f9P_iwot9j96NchUag2D-4" value="&lt;font style=&quot;font-size: 24px;&quot;&gt;client&lt;/font&gt;" style="rounded=1;whiteSpace=wrap;html=1;fillColor=none;fontFamily=阿里巴巴普惠体;direction=east;" vertex="1" parent="1">
          <mxGeometry x="295" y="20" width="110" height="50" as="geometry" />
        </mxCell>
        <mxCell id="f9P_iwot9j96NchUag2D-5" value="" style="rounded=0;whiteSpace=wrap;html=1;fillColor=none;dashed=1;strokeWidth=2;strokeColor=#FF5517;direction=east;" vertex="1" parent="1">
          <mxGeometry x="227.5" y="120" width="245" height="500" as="geometry" />
        </mxCell>
        <mxCell id="f9P_iwot9j96NchUag2D-6" value="" style="edgeStyle=orthogonalEdgeStyle;rounded=0;orthogonalLoop=1;jettySize=auto;html=1;" edge="1" parent="1" source="f9P_iwot9j96NchUag2D-7" target="f9P_iwot9j96NchUag2D-9">
          <mxGeometry relative="1" as="geometry" />
        </mxCell>
        <mxCell id="f9P_iwot9j96NchUag2D-7" value="&lt;font style=&quot;font-size: 24px;&quot; face=&quot;阿里巴巴普惠体&quot;&gt;parser&lt;/font&gt;" style="rounded=1;whiteSpace=wrap;html=1;fontColor=default;fillColor=none;direction=east;" vertex="1" parent="1">
          <mxGeometry x="295" y="230" width="110" height="60" as="geometry" />
        </mxCell>
        <mxCell id="f9P_iwot9j96NchUag2D-8" value="" style="edgeStyle=orthogonalEdgeStyle;rounded=0;orthogonalLoop=1;jettySize=auto;html=1;" edge="1" parent="1" source="f9P_iwot9j96NchUag2D-9" target="f9P_iwot9j96NchUag2D-11">
          <mxGeometry relative="1" as="geometry" />
        </mxCell>
        <mxCell id="f9P_iwot9j96NchUag2D-9" value="&lt;font style=&quot;font-size: 24px;&quot; face=&quot;阿里巴巴普惠体&quot;&gt;analyzer&lt;/font&gt;" style="rounded=1;whiteSpace=wrap;html=1;fontColor=default;fillColor=none;direction=east;" vertex="1" parent="1">
          <mxGeometry x="295" y="330" width="110" height="60" as="geometry" />
        </mxCell>
        <mxCell id="f9P_iwot9j96NchUag2D-10" value="" style="edgeStyle=orthogonalEdgeStyle;rounded=0;orthogonalLoop=1;jettySize=auto;html=1;" edge="1" parent="1" source="f9P_iwot9j96NchUag2D-11" target="f9P_iwot9j96NchUag2D-15">
          <mxGeometry relative="1" as="geometry" />
        </mxCell>
        <mxCell id="f9P_iwot9j96NchUag2D-11" value="&lt;font style=&quot;font-size: 24px;&quot; face=&quot;阿里巴巴普惠体&quot;&gt;catalog&lt;/font&gt;" style="rounded=1;whiteSpace=wrap;html=1;fontColor=default;fillColor=none;strokeColor=default;align=center;verticalAlign=middle;fontFamily=Helvetica;fontSize=12;direction=east;" vertex="1" parent="1">
          <mxGeometry x="295" y="430" width="110" height="60" as="geometry" />
        </mxCell>
        <mxCell id="f9P_iwot9j96NchUag2D-14" value="SQL 语句" style="text;html=1;align=left;verticalAlign=middle;whiteSpace=wrap;rounded=0;fontFamily=阿里巴巴普惠体;fontSize=14;direction=east;" vertex="1" parent="1">
          <mxGeometry x="360" y="80" width="70" height="30" as="geometry" />
        </mxCell>
        <mxCell id="f9P_iwot9j96NchUag2D-15" value="&lt;font face=&quot;阿里巴巴普惠体&quot;&gt;&lt;span style=&quot;font-size: 24px;&quot;&gt;meta persist layer&lt;/span&gt;&lt;/font&gt;" style="rounded=1;whiteSpace=wrap;html=1;fontColor=default;fillColor=none;strokeColor=default;align=center;verticalAlign=middle;fontFamily=Helvetica;fontSize=12;direction=east;" vertex="1" parent="1">
          <mxGeometry x="245" y="530" width="210" height="60" as="geometry" />
        </mxCell>
        <mxCell id="f9P_iwot9j96NchUag2D-17" value="&lt;font style=&quot;font-size: 24px;&quot; face=&quot;阿里巴巴普惠体&quot;&gt;FE&lt;/font&gt;" style="text;html=1;align=center;verticalAlign=middle;whiteSpace=wrap;rounded=0;direction=east;" vertex="1" parent="1">
          <mxGeometry x="210" y="140" width="100" height="30" as="geometry" />
        </mxCell>
        <mxCell id="f9P_iwot9j96NchUag2D-22" value="" style="edgeStyle=orthogonalEdgeStyle;rounded=0;orthogonalLoop=1;jettySize=auto;html=1;" edge="1" parent="1" source="f9P_iwot9j96NchUag2D-21" target="f9P_iwot9j96NchUag2D-7">
          <mxGeometry relative="1" as="geometry" />
        </mxCell>
        <mxCell id="f9P_iwot9j96NchUag2D-21" value="&lt;font face=&quot;阿里巴巴普惠体&quot;&gt;&lt;span style=&quot;font-size: 24px;&quot;&gt;MySQL Server&lt;/span&gt;&lt;/font&gt;" style="rounded=1;whiteSpace=wrap;html=1;fontColor=default;fillColor=none;direction=east;" vertex="1" parent="1">
          <mxGeometry x="295" y="140" width="110" height="60" as="geometry" />
        </mxCell>
        <mxCell id="f9P_iwot9j96NchUag2D-25" style="edgeStyle=orthogonalEdgeStyle;rounded=0;orthogonalLoop=1;jettySize=auto;html=1;exitX=0.5;exitY=1;exitDx=0;exitDy=0;" edge="1" parent="1" source="f9P_iwot9j96NchUag2D-5" target="f9P_iwot9j96NchUag2D-5">
          <mxGeometry relative="1" as="geometry" />
        </mxCell>
        <mxCell id="f9P_iwot9j96NchUag2D-27" value="&lt;span style=&quot;font-size: 22px;&quot;&gt;SQL 建表语句的流程&lt;/span&gt;" style="text;html=1;align=center;verticalAlign=middle;whiteSpace=wrap;rounded=0;" vertex="1" parent="1">
          <mxGeometry x="217.5" y="630" width="265" height="30" as="geometry" />
        </mxCell>
      </root>
    </mxGraphModel>
  </diagram>
</mxfile>
